# xmcd CD database file
#
# Track frame offsets:
#	182
#	14065
#	26665
#	37550
#	52530
#	64892
#	77672
#	89192
#	102350
#	115660
#	129115
#	142107
#
# Disc length: 2055 seconds
#
# Revision: 0
# Processed by: cddbd v1.5.2PL0 Copyright (c) Steve Scherf et al.
# Submitted via: CDex 1.51
#
DISCID=9508050c
DTITLE=Frankie Laine - Frankie Laine - Karussell 839 222-2
DYEAR=1900
DGENRE=Country
TTITLE0=Now that I need you
TTITLE1=Dream a little dream of me
TTITLE2=Metro Polka
TTITLE3=Swamp girl
TTITLE4=The cry of the wild goose
TTITLE5=That´s my desire
TTITLE6=Mule train
TTITLE7=Nevertheless
TTITLE8=Music maestro please
TTITLE9=That lucky old sun
TTITLE10=I´m in the mood for love
TTITLE11=By the river Sainte Marie
EXTD=
EXTT0=
EXTT1=
EXTT2=
EXTT3=
EXTT4=
EXTT5=
EXTT6=
EXTT7=
EXTT8=
EXTT9=
EXTT10=
EXTT11=
PLAYORDER=
